<?xml version="1.0" encoding="utf-8"?>
<!-- Generator: Adobe Adobe Illustrator 24.2.0, SVG Export Plug-In . SVG Version: 6.00 Build 0)  -->
<svg version="1.1" xmlns="http://www.w3.org/2000/svg" xmlns:xlink="http://www.w3.org/1999/xlink" x="0px" y="0px" width="1000px"
	 height="1000px" viewBox="0 0 1000 1000" style="enable-background:new 0 0 1000 1000;" xml:space="preserve">
<style type="text/css">
	.st0{display:none;}
	.st1{display:inline;opacity:0.4706;}
	.st2{font-family:'ArialRoundedMTBold';}
	.st3{font-size:608.012px;}
	.st4{fill:#FFFFFF;stroke:#FFFFFF;stroke-miterlimit:10;stroke-dasharray:0,0,0,0,0,0;}
</style>
<g id="Layer_1" class="st0">
	<text transform="matrix(0.9621 -0.2727 0.2727 0.9621 359.0684 746.3113)" class="st1 st2 st3">E</text>
</g>
<g id="Layer_2">
	<path class="st4" d="M189.31,198.55c-19.75,6.3-44.31,33.85-44.31,57.02c0,21.12,3.3,41.92,8.73,62.27
		c35.03,131.29,74.75,257.25,109.77,388.51c13.41,50.27,25.33,94.59,40.23,146.02c7.24,25,18.94,46.03,31.84,57.35
		c19.07,16.74,45.71,18.64,69.73,11.01c87.46-27.81,159-48.75,246.86-72.72c35.28-9.62,88.73-26.27,130.53-37.67
		c30.81-8.41,57.52-13.03,70.01-50.91c4.49-13.62,1.98-27.27-3.67-39.27c-7.31-15.5-21.01-26.54-36.99-31.03
		c-15.63-4.38-54.71,5.93-70.61,10.74c-107.44,32.46-101.79,29.73-157.91,46.68c-48.8,14.74-89.78,23.75-146.11,40.77
		c-8.12-26.37-22.38-87.69-31.53-117.4c-10.7-34.72-18.04-66.02-28.74-100.74c12.85-3.46,18.23-5.5,26.78-7.8
		c31.61-8.5,68.82-19.02,101.79-27.88c63.75-17.14,93.8-29.73,172.09-50.78c35.16-9.45,52.97-43.04,45.01-69.06
		c-7.06-23.08-28.11-41.8-49.3-41.8c-20.08,0-43.39,9-62.69,14.61c-95.45,27.74-164.8,49.67-261.09,74.22
		c-16.74-62.44-30.41-104.93-49.5-176.11c110.62-28.21,187.8-49.31,303.49-83.68c28.67-8.52,45.67-15.06,59.54-36.93
		c12.33-19.44,11.57-53.83-7.97-72.03c-17.45-16.26-34.29-20.08-60.71-12.93C456.33,116.41,336.27,151.65,189.31,198.55z"/>
</g>
</svg>
